<svg xmlns="http://www.w3.org/2000/svg" xml:space="preserve" width="2000" height="1500" data-id="lg_I8LBCGdjnrTEvxOqXg" data-version="1" viewBox="0 0 2000 1500"><path fill="#fff" stroke="transparent" d="M0 0h2000v1500H0z"/><g data-padding="20"><g transform="translate(-1479.132 -1115.965)scale(2.42056)"><rect width="457.554" height="173.851" x="375.885" y="284.376" fill="none" rx="0" ry="0" transform="translate(490.29 400.41)"/><path d="M905.612 745.731q0 3.03-1.14 5.68-1.14 2.66-3.14 4.65-1.99 1.99-4.64 3.14-2.66 1.14-5.69 1.14h-4.23q-3.03 0-5.71-1.14-2.68-1.15-4.67-3.14t-3.13-4.65q-1.14-2.65-1.14-5.68v-31.96q0-3.03 1.14-5.69 1.14-2.65 3.13-4.64 1.99-2 4.67-3.14t5.71-1.14h4.23q3.03 0 5.69 1.14 2.65 1.14 4.64 3.14 2 1.99 3.14 4.64 1.14 2.66 1.14 5.69Zm-5.36 0v-31.96q0-1.99-.74-3.72-.75-1.72-2.04-3-1.28-1.29-3.01-2.04-1.72-.74-3.71-.74h-3.74q-1.99 0-3.71.74-1.72.75-3.03 2.04-1.31 1.28-2.05 3-.75 1.73-.75 3.72v31.96q0 1.99.75 3.71.74 1.72 2.05 3.03t3.03 2.06q1.72.74 3.71.74h3.74q1.99 0 3.71-.74 1.73-.75 3.01-2.06 1.29-1.31 2.04-3.03.74-1.72.74-3.71m23.25 13.78h-5.11v-59.52h5.11Zm19.12-52.71h-5.93v-6.81h5.93Zm-.41 52.71h-5.11v-42.5h5.11Zm40.31-42.5-15.07 42.5h-2.53l-15.07-42.5h5.11l11.08 32.2.16 2.2.17-2.2 11.04-32.2Zm34.31 30.83q0 2.58-.98 4.86-.97 2.28-2.67 3.98-1.7 1.71-3.99 2.68-2.28.98-4.85.98h-3.41q-2.57 0-4.85-.98-2.29-.97-3.99-2.68-1.7-1.7-2.67-3.98-.98-2.28-.98-4.86v-19.17q0-2.57.98-4.86.97-2.28 2.67-3.98t3.99-2.68q2.28-.97 4.85-.97h3.41q2.57 0 4.85.97 2.29.98 3.99 2.68t2.67 3.98q.98 2.29.98 4.86v10h-23.28v9.46q0 1.54.58 2.89t1.57 2.34q1 1 2.35 1.58t2.88.58h3.41q1.53 0 2.88-.58t2.35-1.58q.99-.99 1.57-2.34t.58-2.89v-2.82l5.11.83Zm-5.11-13.15v-6.31q0-1.54-.58-2.89-.58-1.34-1.57-2.34-1-1-2.35-1.58t-2.88-.58h-3.41q-1.53 0-2.88.58t-2.35 1.58q-.99 1-1.57 2.34-.58 1.35-.58 2.89v6.31Zm22.55-27.89h-5.93v-6.81h5.93Zm-.41 52.71h-5.11v-42.5h5.11Zm29.5-37.64h-5.11q-1.54 0-2.88.58-1.35.58-2.35 1.58t-1.58 2.35q-.58 1.34-.58 2.88v30.26h-5.1v-42.5h1.7l2.78 4.31q1.74-2.36 4.38-3.75 2.63-1.39 5.75-1.39h2.99Zm35.2 37.64h-1.7l-2.82-4.24q-1.75 2.29-4.36 3.68-2.62 1.39-5.73 1.39h-1.29q-2.57 0-4.85-.98-2.28-.97-3.99-2.68-1.7-1.7-2.67-3.98-.98-2.28-.98-4.86v-.41q0-2.57.98-4.86.97-2.28 2.67-3.98 1.71-1.7 3.99-2.68 2.28-.97 4.85-.97h10.8v-6.56q0-1.54-.59-2.89-.58-1.34-1.57-2.34-1-1-2.35-1.58t-2.88-.58h-2.99q-1.54 0-2.89.58-1.34.58-2.34 1.58t-1.58 2.34q-.58 1.35-.58 2.89v1.53l-5.1-.83v-.41q0-2.57.97-4.86.98-2.28 2.68-3.98t3.98-2.68q2.29-.97 4.86-.97h2.99q2.57 0 4.85.97 2.29.98 3.99 2.68t2.68 3.98q.97 2.29.97 4.86Zm-5.1-11.38v-9.21h-10.8q-1.53 0-2.88.58t-2.35 1.6q-.99 1.02-1.57 2.37-.58 1.34-.58 2.88v1.78q0 1.54.58 2.89t1.57 2.34q1 1 2.35 1.58t2.88.58h3.41q1.53 0 2.88-.58t2.35-1.58q.99-.99 1.57-2.34.59-1.35.59-2.89m-187.85 75.4q0 3.03-1.14 5.68-1.14 2.66-3.14 4.65-1.99 1.99-4.64 3.14-2.66 1.14-5.69 1.14h-4.23q-3.03 0-5.71-1.14-2.68-1.15-4.67-3.14t-3.13-4.65q-1.14-2.65-1.14-5.68v-31.96q0-3.03 1.14-5.69 1.14-2.65 3.13-4.64 1.99-2 4.67-3.14t5.71-1.14h4.23q3.03 0 5.69 1.14 2.65 1.14 4.64 3.14 2 1.99 3.14 4.64 1.14 2.66 1.14 5.69v2.41l-5.36.83v-3.24q0-1.99-.74-3.71-.75-1.73-2.04-3.01-1.28-1.29-3.01-2.04-1.72-.74-3.71-.74h-3.74q-1.99 0-3.71.74-1.72.75-3.03 2.04-1.31 1.28-2.05 3.01-.75 1.72-.75 3.71v31.96q0 1.99.75 3.71.74 1.73 2.05 3.03 1.31 1.31 3.03 2.06 1.72.74 3.71.74h3.74q1.99 0 3.71-.74 1.73-.75 3.01-2.06 1.29-1.3 2.04-3.03.74-1.72.74-3.71v-3.24l5.36.87Zm38.59 2.11q0 2.58-.98 4.86-.97 2.28-2.68 3.99-1.7 1.7-3.98 2.67-2.28.98-4.86.98h-3.4q-2.57 0-4.85-.98-2.29-.97-3.99-2.67-1.7-1.71-2.68-3.99-.97-2.28-.97-4.86v-19.17q0-2.57.97-4.86.98-2.28 2.68-3.98t3.99-2.68q2.28-.97 4.85-.97h3.4q2.58 0 4.86.97 2.28.98 3.98 2.68 1.71 1.7 2.68 3.98.98 2.29.98 4.86Zm-5.11.3v-19.76q0-1.54-.58-2.89-.58-1.34-1.58-2.34-.99-1-2.34-1.58t-2.89-.58h-3.4q-1.53 0-2.88.58t-2.35 1.58q-.99 1-1.58 2.34-.58 1.35-.58 2.89v19.76q0 1.53.58 2.88.59 1.35 1.58 2.34 1 1 2.35 1.58t2.88.58h3.4q1.54 0 2.89-.58t2.34-1.58q1-.99 1.58-2.34t.58-2.88m43.72 11.37h-5.11v-31.13q0-1.54-.58-2.89-.58-1.34-1.58-2.34-.99-1-2.34-1.58t-2.89-.58h-3.4q-1.54 0-2.88.58-1.35.58-2.35 1.58t-1.58 2.34q-.58 1.35-.58 2.89v31.13h-5.1v-42.5h1.7l2.78 4.31q1.74-2.36 4.38-3.75 2.63-1.39 5.75-1.39h1.28q2.58 0 4.86.97 2.28.98 3.98 2.68 1.71 1.7 2.68 3.98.98 2.29.98 4.86Zm39.41-10.79q0 2.57-1.03 4.71-1.04 2.13-2.83 3.67-1.78 1.54-4.12 2.39-2.35.85-4.92.85h-3.41q-2.57 0-4.91-.98-2.35-.97-4.11-2.67-1.77-1.71-2.83-3.99-1.05-2.28-1.05-4.86v-1.7l5.1-.83v2.83q0 1.53.64 2.88.65 1.35 1.73 2.34 1.08 1 2.49 1.58t2.94.58h3.41q1.53 0 2.94-.45 1.41-.46 2.51-1.31t1.75-2.06q.64-1.2.64-2.73 0-2.29-.99-3.74-1-1.45-2.64-2.43-1.64-.97-3.74-1.62-2.09-.64-4.29-1.28-2.2-.65-4.3-1.48-2.09-.83-3.73-2.18-1.64-1.34-2.64-3.38-.99-2.03-.99-5.06 0-2.57.99-4.71 1-2.14 2.7-3.68 1.7-1.53 3.96-2.38 2.27-.85 4.84-.85h2.99q2.57 0 4.85.97 2.29.98 3.99 2.68t2.67 3.98q.98 2.29.98 4.86v.17l-5.11.83v-1.29q0-1.54-.58-2.89-.58-1.34-1.57-2.34-1-1-2.35-1.58t-2.88-.58h-2.99q-1.54 0-2.89.46-1.34.45-2.34 1.31-1 .85-1.58 2.05t-.58 2.74q0 2.2 1 3.59.99 1.39 2.63 2.34 1.64.96 3.74 1.6l4.27 1.33q2.18.69 4.28 1.56 2.09.87 3.73 2.24t2.64 3.42q.99 2.06.99 5.09m38.19 10.8h-1.7l-2.83-4.32q-1.74 2.37-4.35 3.76-2.62 1.39-5.73 1.39h-1.29q-2.57 0-4.85-.98-2.29-.97-3.99-2.67-1.7-1.71-2.68-3.99-.97-2.28-.97-4.86v-30.83h5.1v31.13q0 1.53.59 2.88.58 1.35 1.57 2.34 1 1 2.35 1.58t2.88.58h3.41q1.53 0 2.88-.58t2.35-1.58q.99-.99 1.57-2.34t.58-2.88v-31.13h5.11Zm17.01-.01h-5.1v-59.52h5.1Zm32.05 0h-4.65q-2.33 0-4.38-.87-2.06-.88-3.57-2.41-1.52-1.54-2.41-3.57t-.89-4.36v-26.44h-7.64v-4.85h7.64v-10.21l5.1-.83v11.04h10.8v4.85h-10.8v26.69q0 1.29.48 2.39t1.31 1.93 1.95 1.3q1.12.48 2.41.48h4.65Zm37.76-11.67q0 2.58-.97 4.86-.98 2.28-2.68 3.99-1.7 1.7-3.98 2.67-2.28.98-4.86.98h-3.4q-2.57 0-4.86-.98-2.28-.97-3.98-2.67-1.7-1.71-2.68-3.99-.97-2.28-.97-4.86v-19.17q0-2.57.97-4.86.98-2.28 2.68-3.98t3.98-2.68q2.29-.97 4.86-.97h3.4q2.58 0 4.86.97 2.28.98 3.98 2.68t2.68 3.98q.97 2.29.97 4.86Zm-5.1.3v-19.76q0-1.54-.58-2.89-.58-1.34-1.58-2.34-.99-1-2.34-1.58t-2.89-.58h-3.4q-1.54 0-2.89.58-1.34.58-2.34 1.58t-1.58 2.34q-.58 1.35-.58 2.89v19.76q0 1.53.58 2.88t1.58 2.34q1 1 2.34 1.58 1.35.58 2.89.58h3.4q1.54 0 2.89-.58t2.34-1.58q1-.99 1.58-2.34t.58-2.88m32.91-26.28h-5.1q-1.54 0-2.89.58-1.35.59-2.34 1.58-1 1-1.58 2.35t-.58 2.88v30.26h-5.11v-42.5h1.71l2.78 4.31q1.74-2.36 4.38-3.75 2.63-1.39 5.74-1.39h2.99Zm14.04-15.06h-5.93v-6.81h5.93Zm-.41 52.71h-5.11v-42.5h5.11Zm40.29 0h-1.71l-2.82-4.24q-1.74 2.29-4.36 3.68-2.61 1.39-5.72 1.39h-1.29q-2.57 0-4.86-.98-2.28-.97-3.98-2.67-1.7-1.71-2.68-3.99-.97-2.28-.97-4.86v-.41q0-2.57.97-4.86.98-2.28 2.68-3.98t3.98-2.68q2.29-.97 4.86-.97h10.79v-6.56q0-1.54-.58-2.89-.58-1.34-1.58-2.34-.99-1-2.34-1.58t-2.89-.58h-2.99q-1.53 0-2.88.58t-2.34 1.58q-1 1-1.58 2.34-.58 1.35-.58 2.89v1.54l-5.11-.83v-.42q0-2.57.98-4.86.97-2.28 2.67-3.98 1.71-1.7 3.99-2.68 2.28-.97 4.85-.97h2.99q2.58 0 4.86.97 2.28.98 3.98 2.68t2.68 3.98q.98 2.29.98 4.86Zm-5.11-11.37v-9.22h-10.79q-1.54 0-2.88.58-1.35.58-2.35 1.6t-1.58 2.37-.58 2.88v1.79q0 1.53.58 2.88t1.58 2.34q1 1 2.35 1.58 1.34.58 2.88.58h3.4q1.54 0 2.89-.58t2.34-1.58q1-.99 1.58-2.34t.58-2.88"/><path fill="#4037e7" d="M1015.78 682.235v-56.912H724.663v291.115h291.115v-56.912h-4.74v52.172H729.404V630.063h281.635v52.172Z"/></g><path fill="transparent" stroke="transparent" stroke-width="2.504" d="M250 385.643h1500v728.714H250z"/></g></svg>